:SAMPLES-PER-SECOND 24
:FULLY-SPECIFIED
:DEGREES
649
root  2.5706 38.4024 34.2387 3.90308 -66.3472 1.69629
RightUpLeg  -15.2003 1.72935 -11.8072
RightLeg  28.1046 -3.93219 -2.52158
RightFoot  -18.4915 0.676733 12.8949
RightToes  -2.08645e-008 3.77894e-005 6.81332e-007
Spine  3.20084 0.00670389 -8.00967
Spine1  5.25951 -1.64179 6.29873
HEad  -39.7296 36.3749 -19.2962
LeftShoulder1  7.43025 -13.206 -38.3491
LeftArm  11.4013 -2.81687 -22.7565
LeftForeArm  164.324 -72.0109 -149.515
LeftHand  -0.472691 -3.26019 6.59244
RightShoulder  3.92067 6.73146 32.419
RightArm  13.9477 -27.9594 28.3924
RightForeArm  114.044 80.1188 103.644
RightHand  -0.4765 7.87419 -4.5267
LeftUpLeg  -15.6449 -2.8705 1.30851
LeftLeg  31.7677 8.4299 5.94003
LeftFoot  -16.7843 -0.284564 -8.02045
LeftToes  1.24767e-006 1.47042e-008 1.32732e-009
650
root  2.63423 38.5924 33.5559 6.24731 -67.8386 -0.327087
RightUpLeg  -14.644 1.04381 -10.5927
RightLeg  25.2794 -1.41836 -0.951776
RightFoot  -20.7507 0.952802 13.2714
RightToes  -2.08645e-008 3.77894e-005 6.81332e-007
Spine  2.25006 0.299754 -7.38277
Spine1  5.14996 -1.19925 5.98548
HEad  -40.7257 35.8494 -20.004
LeftShoulder1  7.35113 -13.1332 -38.0758
LeftArm  10.4318 2.4673 -23.8493
LeftForeArm  166.107 -71.4068 -150.773
LeftHand  -0.421441 -3.39521 5.81779
RightShoulder  3.90021 6.6942 32.3585
RightArm  12.2578 -31.9182 29.6143
RightForeArm  127.84 78.9228 119.186
RightHand  -0.404198 7.54164 -3.98636
LeftUpLeg  -16.4004 -2.58641 3.37005
LeftLeg  31.3442 8.3474 5.81735
LeftFoot  -14.733 -0.206891 -9.83893
LeftToes  1.24767e-006 1.47042e-008 1.32732e-009
651
root  2.57621 39.4202 32.6499 7.94604 -69.316 -1.3988
RightUpLeg  -14.6345 1.7706 -9.33013
RightLeg  24.0864 -4.78734 -2.55213
RightFoot  -17.4797 0.529117 12.0467
RightToes  -2.08645e-008 3.77894e-005 6.81332e-007
Spine  1.3089 0.322654 -6.90382
Spine1  4.59642 -0.899691 5.34757
HEad  -41.4464 36.5558 -20.4358
LeftShoulder1  7.18154 -12.9182 -37.6396
LeftArm  10.0803 10.9138 -24.5354
LeftForeArm  168.749 -69.0724 -154.45
LeftHand  -0.44264 -2.95669 6.39093
RightShoulder  3.88719 6.69839 32.2145
RightArm  13.0887 -34.618 30.697
RightForeArm  135.861 77.9706 126.925
RightHand  -0.415759 7.42776 -4.11973
LeftUpLeg  -15.1187 -2.83694 5.52981
LeftLeg  26.1337 9.272 5.26483
LeftFoot  -8.67372 0.351643 -12.8372
LeftToes  1.24767e-006 1.47042e-008 1.32732e-009
652
root  2.4524 40.5487 31.5329 8.83374 -68.7422 -1.33984
RightUpLeg  -14.3937 2.36916 -8.58887
RightLeg  24.3383 -9.22041 -4.74878
RightFoot  -8.66129 -0.258393 8.59131
RightToes  -2.08645e-008 3.77894e-005 6.81332e-007
Spine  0.512817 -0.304461 -6.86825
Spine1  3.3155 -1.33863 5.22934
HEad  -40.1423 37.6101 -19.5424
LeftShoulder1  6.98241 -12.7007 -37.0198
LeftArm  9.96451 19.2088 -24.6461
LeftForeArm  168.768 -67.8025 -155.981
LeftHand  -0.447182 -2.77239 6.58708
RightShoulder  3.89656 6.73682 32.1624
RightArm  14.168 -36.3168 31.9688
RightForeArm  137.44 78.2172 126.164
RightHand  -0.283707 7.73239 -2.87154
LeftUpLeg  -13.5492 -0.838185 7.61933
LeftLeg  18.2769 7.32626 3.19209
LeftFoot  0.282478 1.56395 -15.2613
LeftToes  1.24767e-006 1.47042e-008 1.32732e-009
653
root  2.33124 41.4232 30.3313 9.15674 -66.7761 -1.07922
RightUpLeg  -13.8292 1.70478 -8.35705
RightLeg  26.0138 -7.897 -4.38454
RightFoot  1.44999 -0.983512 8.60591
RightToes  -2.08645e-008 3.77894e-005 6.81332e-007
Spine  0.240967 -0.888936 -5.46073
Spine1  1.66642 -1.57376 3.8581
HEad  -37.0222 37.535 -17.8416
LeftShoulder1  6.85962 -12.6323 -36.4588
LeftArm  9.77808 25.0909 -24.0935
LeftForeArm  167.341 -67.7314 -155.89
LeftHand  -0.330846 -3.19465 4.72001
RightShoulder  3.98594 6.84198 32.6399
RightArm  14.88 -37.5432 32.4025
RightForeArm  133.341 78.6397 122.731
RightHand  -0.157507 7.65822 -1.76632
LeftUpLeg  -12.8166 4.43627 9.69443
LeftLeg  11.633 -0.836987 0.346572
LeftFoot  10.2275 3.34576 -17.7131
LeftToes  1.24767e-006 1.47042e-008 1.32732e-009
654
root  2.28078 41.6136 29.1717 9.01831 -65.1044 -0.858704
RightUpLeg  -13.1456 1.62868 -8.79712
RightLeg  28.5846 -3.37251 -2.20891
RightFoot  5.04295 -1.61432 11.4325
RightToes  -2.08645e-008 3.77894e-005 6.81332e-007
Spine  -0.749095 -0.812167 -2.64422
Spine1  2.00158 -1.02061 1.20861
HEad  -34.5307 36.3183 -17.3091
LeftShoulder1  6.79743 -12.6251 -36.102
LeftArm  9.61069 27.0982 -23.7178
LeftForeArm  165.348 -68.6743 -154.523
LeftHand  -0.231884 -3.4957 3.28277
RightShoulder  4.03025 6.88091 32.9242
RightArm  15.8518 -36.9395 31.7266
RightForeArm  128.273 78.8489 119.904
RightHand  -0.215526 7.15281 -2.34926
LeftUpLeg  -13.1907 5.42108 11.8166
LeftLeg  9.29918 -3.44038 0.135655
LeftFoot  15.0294 3.98192 -17.3425
LeftToes  1.24767e-006 1.47042e-008 1.32732e-009
655
root  2.30722 41.1317 27.9775 8.56201 -63.7847 -0.769165
RightUpLeg  -11.2698 3.21612 -9.24332
RightLeg  29.5718 0.556539 0.105313
RightFoot  -0.132818 -1.17464 11.9215
RightToes  -2.08645e-008 3.77894e-005 6.81332e-007
Spine  -1.11621 -0.241002 -1.15177
Spine1  2.65739 -0.370545 0.772159
HEad  -33.1214 35.0813 -17.7226
LeftShoulder1  6.52401 -12.3471 -35.1369
LeftArm  8.75625 27.3669 -25.613
LeftForeArm  163.321 -70.4095 -151.909
LeftHand  -0.215334 -3.42369 3.08679
RightShoulder  3.877 6.75151 31.9155
RightArm  17.5499 -35.3084 30.1804
RightForeArm  132.094 78.3115 124.148
RightHand  -0.310079 6.39598 -3.38956
LeftUpLeg  -14.4208 1.45404 14.3991
LeftLeg  11.7533 4.52106 2.50715
LeftFoot  13.2132 2.3029 -10.9311
LeftToes  1.24767e-006 1.47042e-008 1.32732e-009
656
root  2.42043 40.1192 26.6549 7.72412 -62.9518 -1.01709
RightUpLeg  -8.91637 4.93385 -8.43975
RightLeg  29.3673 2.99599 1.59448
RightFoot  -9.63311 -0.221659 10.1371
RightToes  -2.08645e-008 3.77894e-005 6.81332e-007
Spine  0.891624 0.58673 -1.36653
Spine1  1.89985 0.222391 2.21841
HEad  -33.4568 34.0959 -18.4649
LeftShoulder1  6.30805 -12.0733 -34.4876
LeftArm  6.84032 27.2694 -27.9303
LeftForeArm  162.461 -71.3366 -150.364
LeftHand  -0.210252 -3.39914 3.02661
RightShoulder  3.71961 6.58931 30.9563
RightArm  19.1264 -32.4029 27.8296
RightForeArm  136.522 77.5227 129.19
RightHand  -0.399828 6.24436 -4.3151
LeftUpLeg  -15.7714 -2.69698 18.0975
LeftLeg  17.4055 13.6045 5.03506
LeftFoot  10.7079 1.28474 -6.9621
LeftToes  1.24767e-006 1.47042e-008 1.32732e-009
657
root  2.64064 38.9423 25.4067 7.77783 -63.1154 -2.5401
RightUpLeg  -8.96183 5.36835 -5.88123
RightLeg  32.0313 2.59972 1.49614
RightFoot  -17.9355 0.269752 6.90851
RightToes  -2.08645e-008 3.77894e-005 6.81332e-007
Spine  2.66916 1.35386 0.219999
Spine1  3.03214 1.19298 1.51336
HEad  -36.78 33.0856 -19.8982
LeftShoulder1  6.68053 -12.3728 -36.0296
LeftArm  3.23301 25.2321 -27.6838
LeftForeArm  162.003 -72.1371 -148.957
LeftHand  -0.250005 -3.44151 3.5371
RightShoulder  3.77973 6.55767 31.6761
RightArm  18.5912 -25.6572 26.4373
RightForeArm  124.955 78.8754 118.395
RightHand  -0.474806 6.86997 -4.83914
LeftUpLeg  -16.3786 -3.19784 21.2167
LeftLeg  22.5835 13.9067 6.55616
LeftFoot  9.23102 1.99908 -11.3577
LeftToes  1.24767e-006 1.47042e-008 1.32732e-009
658
root  2.85851 38.0239 24.4723 8.69092 -63.4291 -4.44385
RightUpLeg  -10.6321 5.90053 -3.07338
RightLeg  36.2538 -0.137322 -0.395235
RightFoot  -23.424 0.237654 3.77659
RightToes  -2.08645e-008 3.77894e-005 6.81332e-007
Spine  2.14255 1.52104 3.44944
Spine1  6.46663 2.04891 -1.18324
HEad  -40.5402 32.4829 -20.747
LeftShoulder1  7.36851 -13.0047 -38.5035
LeftArm  -2.84034 23.4147 -27.2883
LeftForeArm  159.143 -74.8828 -142.639
LeftHand  -0.31461 -3.41781 4.39642
RightShoulder  3.97785 6.6786 33.1799
RightArm  15.6601 -18.1833 27.6756
RightForeArm  99.2091 80.2715 90.6052
RightHand  -0.458316 7.01411 -4.63235
LeftUpLeg  -16.6213 -5.762 23.2697
LeftLeg  25.6297 16.1476 8.61835
LeftFoot  6.41424 1.90138 -12.3695
LeftToes  1.24767e-006 1.47042e-008 1.32732e-009
659
root  2.90674 37.8673 23.8279 8.14917 -62.9003 -3.94196
RightUpLeg  -10.62 7.53634 -1.84195
RightLeg  35.9869 -2.42434 -2.15442
RightFoot  -24.7746 0.214772 3.24986
RightToes  -2.08645e-008 3.77894e-005 6.81332e-007
Spine  0.620474 1.37 3.79198
Spine1  8.39803 2.15131 -2.24023
HEad  -41.781 32.7805 -19.9166
LeftShoulder1  7.68447 -13.2947 -39.5673
LeftArm  -9.20294 26.5423 -29.7286
LeftForeArm  154.878 -76.9464 -135.777
LeftHand  -0.368242 -3.03723 5.31011
RightShoulder  4.12981 6.79408 34.2128
RightArm  11.7743 -16.687 30.7025
RightForeArm  97.1636 80.382 86.3954
RightHand  -0.53121 6.61618 -5.4697
LeftUpLeg  -16.0443 -7.08647 22.4522
LeftLeg  24.1642 22.79 11.0602
LeftFoot  5.08416 0.797868 -5.7405
LeftToes  1.24767e-006 1.47042e-008 1.32732e-009
660
root  2.85275 38.6756 23.4722 6.54077 -61.8229 -1.30658
RightUpLeg  -9.23565 8.53217 -2.36532
RightLeg  30.8396 -3.67684 -2.60954
RightFoot  -20.6124 0.208711 4.27111
RightToes  -2.08645e-008 3.77894e-005 6.81332e-007
Spine  -1.34969 1.23818 1.35943
Spine1  8.54454 1.83032 -1.74407
HEad  -41.5169 33.3046 -18.8866
LeftShoulder1  7.64494 -13.231 -39.5083
LeftArm  -12.485 33.5265 -33.0678
LeftForeArm  154.318 -76.158 -138.213
LeftHand  -0.451932 -2.0378 7.24927
RightShoulder  4.19423 6.80026 34.808
RightArm  9.01098 -20.7381 33.8035
RightForeArm  119.529 79.7829 109.642
RightHand  -0.687561 6.35775 -7.11447
LeftUpLeg  -14.3941 -2.39891 18.3938
LeftLeg  17.215 22.0279 8.01428
LeftFoot  6.46471 0.721276 -4.79881
LeftToes  1.24767e-006 1.47042e-008 1.32732e-009
661
root  2.94706 40.106 23.4894 6.56201 -60.8972 0.195862
RightUpLeg  -8.70661 6.28278 -3.83644
RightLeg  24.8829 -2.03978 -1.27648
RightFoot  -12.0001 -0.0365717 5.19904
RightToes  -2.08645e-008 3.77894e-005 6.81332e-007
Spine  -3.45719 1.26954 0.536232
Spine1  8.25242 1.86671 -1.94018
HEad  -40.5767 33.45 -18.4171
LeftShoulder1  7.44486 -12.9865 -38.9978
LeftArm  -12.4978 39.8903 -35.1066
LeftForeArm  155.681 -74.6044 -142.768
LeftHand  -0.486181 -2.07546 7.76809
RightShoulder  4.19191 6.74232 35.0128
RightArm  7.82741 -25.3481 36.1647
RightForeArm  131.482 78.6253 122.312
RightHand  -0.689447 6.46108 -7.07814
LeftUpLeg  -12.9907 5.66246 12.8919
LeftLeg  11.2525 8.66612 2.71003
LeftFoot  8.21043 2.21056 -13.0442
LeftToes  1.24767e-006 1.47042e-008 1.32732e-009
662
root  3.26328 41.5147 23.6944 8.37207 -60.6394 -0.734009
RightUpLeg  -9.21884 1.98252 -5.18169
RightLeg  20.511 4.26889 1.52809
RightFoot  -1.48537 -0.844888 9.48607
RightToes  -2.08645e-008 3.77894e-005 6.81332e-007
Spine  -3.82962 1.77802 1.87987
Spine1  6.57281 2.41 -2.47862
HEad  -37.9616 33.5734 -17.2877
LeftShoulder1  7.19839 -12.7728 -38.1157
LeftArm  -11.0797 44.5849 -35.5881
LeftForeArm  160.909 -73.2907 -146.589
LeftHand  -0.286212 -2.98982 4.20629
RightShoulder  4.15807 6.73852 34.7017
RightArm  8.02705 -28.8599 36.9198
RightForeArm  132.515 78.4578 123.495
RightHand  -0.5652 6.42893 -5.87787
LeftUpLeg  -11.9656 7.41752 9.24535
LeftLeg  10.1324 -1.89463 -0.768629
LeftFoot  8.90817 3.5039 -19.7684
LeftToes  1.24767e-006 1.47042e-008 1.32732e-009
663
root  3.64086 42.4051 23.7959 9.7854 -60.8559 -2.13885
RightUpLeg  -9.76265 -0.74922 -5.79758
RightLeg  17.9826 7.75686 2.36257
RightFoot  6.3878 -2.44677 15.8793
RightToes  -2.08645e-008 3.77894e-005 6.81332e-007
Spine  -3.11937 2.4346 1.99923
Spine1  4.87868 2.92922 -1.92767
HEad  -35.4875 33.9601 -15.9043
LeftShoulder1  7.14051 -12.8948 -37.4584
LeftArm  -7.77495 47.7167 -33.5802
LeftForeArm  165.336 -71.3469 -150.754
LeftHand  -0.0821207 -3.17105 1.35041
RightShoulder  4.1527 6.84126 34.2505
RightArm  10.3176 -30.2801 35.6258
RightForeArm  127.954 78.6816 120.805
RightHand  -0.450084 6.32823 -4.78858
LeftUpLeg  -11.0238 8.71207 6.29693
LeftLeg  12.0577 -6.42723 -2.129
LeftFoot  9.43672 4.31971 -23.5823
LeftToes  1.24767e-006 1.47042e-008 1.32732e-009
